<mxfile host="app.diagrams.net" modified="2023-05-11T06:15:09.029Z" agent="Mozilla/5.0 (Windows NT 10.0; Win64; x64) AppleWebKit/537.36 (KHTML, like Gecko) Chrome/112.0.0.0 Safari/537.36" version="21.2.9" etag="haVva2RtAMZYb9BN-r6i" type="github">
  <diagram name="第 1 页" id="Oa2yIx64AW9FirFjD4UD">
    <mxGraphModel>
      <root>
        <mxCell id="0" />
        <mxCell id="1" parent="0" />
      </root>
    </mxGraphModel>
  </diagram>
</mxfile>
